<mxfile host="65bd71144e">
    <diagram id="aa5P1cJ4GfnrEH0GIoKH" name="Page-1">
        <mxGraphModel dx="2863" dy="1380" grid="1" gridSize="10" guides="1" tooltips="1" connect="1" arrows="1" fold="1" page="1" pageScale="1" pageWidth="850" pageHeight="1100" math="0" shadow="0">
            <root>
                <mxCell id="0"/>
                <mxCell id="1" parent="0"/>
                <mxCell id="7" style="edgeStyle=none;html=1;exitX=0.75;exitY=1;exitDx=0;exitDy=0;entryX=0.75;entryY=0;entryDx=0;entryDy=0;" edge="1" parent="1" source="4" target="5">
                    <mxGeometry relative="1" as="geometry"/>
                </mxCell>
                <mxCell id="8" value="request" style="edgeLabel;html=1;align=center;verticalAlign=middle;resizable=0;points=[];" vertex="1" connectable="0" parent="7">
                    <mxGeometry x="0.3156" y="-2" relative="1" as="geometry">
                        <mxPoint x="22" y="-13" as="offset"/>
                    </mxGeometry>
                </mxCell>
                <mxCell id="4" value="FRONTEND&lt;br&gt;&lt;br&gt;- HTML&lt;br&gt;- CSS&lt;br&gt;- JavaScript&lt;br&gt;- fetch API" style="rounded=0;whiteSpace=wrap;html=1;" vertex="1" parent="1">
                    <mxGeometry x="100" y="330" width="120" height="100" as="geometry"/>
                </mxCell>
                <mxCell id="9" style="edgeStyle=none;html=1;exitX=0.25;exitY=0;exitDx=0;exitDy=0;entryX=0.25;entryY=1;entryDx=0;entryDy=0;" edge="1" parent="1" source="5" target="4">
                    <mxGeometry relative="1" as="geometry"/>
                </mxCell>
                <mxCell id="10" value="response" style="edgeLabel;html=1;align=center;verticalAlign=middle;resizable=0;points=[];" vertex="1" connectable="0" parent="9">
                    <mxGeometry x="-0.2489" y="1" relative="1" as="geometry">
                        <mxPoint x="-29" y="-11" as="offset"/>
                    </mxGeometry>
                </mxCell>
                <mxCell id="11" style="edgeStyle=none;html=1;exitX=0.5;exitY=1;exitDx=0;exitDy=0;entryX=0.5;entryY=0;entryDx=0;entryDy=0;" edge="1" parent="1" source="5" target="6">
                    <mxGeometry relative="1" as="geometry"/>
                </mxCell>
                <mxCell id="12" value="query" style="edgeLabel;html=1;align=center;verticalAlign=middle;resizable=0;points=[];" vertex="1" connectable="0" parent="11">
                    <mxGeometry x="-0.5902" relative="1" as="geometry">
                        <mxPoint x="20" y="2" as="offset"/>
                    </mxGeometry>
                </mxCell>
                <mxCell id="5" value="BACKEND&lt;br&gt;&lt;br&gt;- Express.js&lt;br&gt;- Routes&lt;br&gt;- Middleware&lt;br&gt;&amp;nbsp;- Controllers" style="rounded=0;whiteSpace=wrap;html=1;" vertex="1" parent="1">
                    <mxGeometry x="100" y="480" width="120" height="110" as="geometry"/>
                </mxCell>
                <mxCell id="6" value="DATABASE&lt;br&gt;&lt;br&gt;- MongoDB&lt;br&gt;- Data Models&lt;br&gt;- Mongoose" style="rounded=0;whiteSpace=wrap;html=1;" vertex="1" parent="1">
                    <mxGeometry x="100" y="630" width="120" height="80" as="geometry"/>
                </mxCell>
                <mxCell id="24" style="edgeStyle=none;html=1;exitX=0.25;exitY=1;exitDx=0;exitDy=0;entryX=0.25;entryY=0;entryDx=0;entryDy=0;" edge="1" parent="1" source="19" target="22">
                    <mxGeometry relative="1" as="geometry"/>
                </mxCell>
                <mxCell id="25" value="HTTP Request &lt;br&gt;(GET, POST, PUT, DELETE)" style="edgeLabel;html=1;align=center;verticalAlign=middle;resizable=0;points=[];" vertex="1" connectable="0" parent="24">
                    <mxGeometry x="0.3333" y="3" relative="1" as="geometry">
                        <mxPoint x="-33" y="3" as="offset"/>
                    </mxGeometry>
                </mxCell>
                <mxCell id="19" value="Client&lt;br&gt;- Web App" style="rounded=0;whiteSpace=wrap;html=1;" vertex="1" parent="1">
                    <mxGeometry x="420" y="330" width="120" height="60" as="geometry"/>
                </mxCell>
                <mxCell id="26" style="edgeStyle=none;html=1;exitX=0.75;exitY=0;exitDx=0;exitDy=0;entryX=0.75;entryY=1;entryDx=0;entryDy=0;" edge="1" parent="1" source="22" target="19">
                    <mxGeometry relative="1" as="geometry"/>
                </mxCell>
                <mxCell id="27" value="HTTP Response (JSON)" style="edgeLabel;html=1;align=center;verticalAlign=middle;resizable=0;points=[];" vertex="1" connectable="0" parent="26">
                    <mxGeometry x="0.2909" y="2" relative="1" as="geometry">
                        <mxPoint x="12" y="-16" as="offset"/>
                    </mxGeometry>
                </mxCell>
                <mxCell id="28" style="edgeStyle=none;html=1;exitX=0.5;exitY=1;exitDx=0;exitDy=0;entryX=0.5;entryY=0;entryDx=0;entryDy=0;" edge="1" parent="1" source="22" target="23">
                    <mxGeometry relative="1" as="geometry"/>
                </mxCell>
                <mxCell id="22" value="REST APIs [Web Server]" style="rounded=0;whiteSpace=wrap;html=1;" vertex="1" parent="1">
                    <mxGeometry x="420" y="520" width="120" height="60" as="geometry"/>
                </mxCell>
                <mxCell id="29" style="edgeStyle=none;html=1;exitX=0.5;exitY=0;exitDx=0;exitDy=0;entryX=0.5;entryY=1;entryDx=0;entryDy=0;" edge="1" parent="1" source="23" target="22">
                    <mxGeometry relative="1" as="geometry">
                        <mxPoint x="479.8205128205128" y="580" as="targetPoint"/>
                    </mxGeometry>
                </mxCell>
                <mxCell id="23" value="Database" style="rounded=0;whiteSpace=wrap;html=1;" vertex="1" parent="1">
                    <mxGeometry x="420" y="630" width="120" height="60" as="geometry"/>
                </mxCell>
                <mxCell id="30" value="JSON" style="text;html=1;align=center;verticalAlign=middle;resizable=0;points=[];autosize=1;strokeColor=none;fillColor=none;" vertex="1" parent="1">
                    <mxGeometry x="470" y="590" width="60" height="30" as="geometry"/>
                </mxCell>
                <mxCell id="35" value="HTML, CSS, JS, fetch APIs" style="text;html=1;align=center;verticalAlign=middle;resizable=0;points=[];autosize=1;strokeColor=none;fillColor=none;" vertex="1" parent="1">
                    <mxGeometry x="570" y="345" width="170" height="30" as="geometry"/>
                </mxCell>
                <mxCell id="37" value="Express.js, Routes, Middleware" style="text;html=1;align=center;verticalAlign=middle;resizable=0;points=[];autosize=1;strokeColor=none;fillColor=none;" vertex="1" parent="1">
                    <mxGeometry x="570" y="535" width="190" height="30" as="geometry"/>
                </mxCell>
                <mxCell id="38" value="MongoDB, Data Models, Mongoose" style="text;html=1;align=center;verticalAlign=middle;resizable=0;points=[];autosize=1;strokeColor=none;fillColor=none;" vertex="1" parent="1">
                    <mxGeometry x="570" y="645" width="210" height="30" as="geometry"/>
                </mxCell>
            </root>
        </mxGraphModel>
    </diagram>
</mxfile>